/* XPM */
static char *result[] = {
/* columns rows colors chars-per-pixel */
"100 100 9 1 ",
"  c black",
". c #202125",
"X c #466925",
"o c #46484E",
"O c #58595E",
"+ c #76777B",
"@ c #6FB928",
"# c #B1EA7A",
"$ c #808B9E",
/* pixels */
"$$$$$$$$$$$$$$$$$$$$$$$$....................................................$$$$$$$$$$$$$$$$$$$$$$$$",
"$$$$$$$$$$$$$$$$$$$$$$$$.OOOOOOOOOOOOOOOOOOOOooo                           .$$$$$$$$$$$$$$$$$$$$$$$$",
"$$$$$$$$$$$$$$$$$$$$$$$$.O++++++++++++++++++oooo                           .$$$$$$$$$$$$$$$$$$$$$$$$",
"$$$$$$$$$$$$$$$$$$$$$$$$.O++++++++++++++++++oooo                           .$$$$$$$$$$$$$$$$$$$$$$$$",
"$$$$$$$$$$$$$$$$$$$$$$$$.O++++++.........+++oooo                           .$$$$$$$$$$$$$$$$$$$$$$$$",
"$$$$$$$$$$$$$$$$$$$$$$$$.O++++++#########+++oooo                           .$$$$$$$$$$$$$$$$$$$$$$$$",
"$$$$$$$$$$$$$$$$$$$$$$$$.O++++++##@@@@@##+++oooo                           .$$$$$$$$$$$$$$$$$$$$$$$$",
"$$$$$$$$$$$$$$$$$$$$$$$$.O++++++#@@@@@@@#+++oooo                           .$$$$$$$$$$$$$$$$$$$$$$$$",
"$$$$$$$$$$$$$$$$$$$$$$$$.O++++++@@@@@@@@@+++oooo                           .$$$$$$$$$$$$$$$$$$$$$$$$",
"$$$$$$$$$$$$$$$$$$$$$$$$.O++++++@@@@@@@@@+++oooo                           .$$$$$$$$$$$$$$$$$$$$$$$$",
"$$$$$$$$$$$$$$$$$$$$$$$$.O++++++@@@@@@@@@+++oooo                           .$$$$$$$$$$$$$$$$$$$$$$$$",
"$$$$$$$$$$$$$$$$$$$$$$$$.O++++++@@@@@@@@@+++oooo                           .$$$$$$$$$$$$$$$$$$$$$$$$",
"$$$$$$$$$$$$$$$$$$$$$$$$.O++++++@@@@@@@@@+++oooo                           .$$$$$$$$$$$$$$$$$$$$$$$$",
"$$$$$$$$$$$$$$$$$$$$$$$$.O++++++@@@@@@@@@+++oooo                           .$$$$$$$$$$$$$$$$$$$$$$$$",
"$$$$$$$$$$$$$$$$$$$$$$$$.O++++++@@@@@@@@@+++oooo                           .$$$$$$$$$$$$$$$$$$$$$$$$",
"$$$$$$$$$$$$$$$$$$$$$$$$.O++++++@@@@@@@@@+++oooo                           .$$$$$$$$$$$$$$$$$$$$$$$$",
"$$$$$$$$$$$$$$$$$$$$$$$$.O++++++@@@@@@@@@+++oooo                           .$$$$$$$$$$$$$$$$$$$$$$$$",
"$$$$$$$$$$$$$$$$$$$$$$$$.O++++++@@@@@@@@@+++oooo                           .$$$$$$$$$$$$$$$$$$$$$$$$",
"$$$$$$$$$$$$$$$$$$$$$$$$.O++++++@@@@@@@@@+++oooo                           .$$$$$$$$$$$$$$$$$$$$$$$$",
"$$$$$$$$$$$$$$$$$$$$$$$$.O++++++@@@@@@@@@+++oooo                           .$$$$$$$$$$$$$$$$$$$$$$$$",
"$$$$$$$$$$$$$$$$$$$$$$$$.O++++++@@@@@@@@@+++oooo                           .$$$$$$$$$$$$$$$$$$$$$$$$",
"$$$$$$$$$$$$$$$$$$$$$$$$.O++++++@@@@@@@@@+++oooo                           .$$$$$$$$$$$$$$$$$$$$$$$$",
"$$$$$$$$$$$$$$$$$$$$$$$$.O++++++@@@@@@@@@+++oooo                           .$$$$$$$$$$$$$$$$$$$$$$$$",
"$$$$$$$$$$$$$$$$$$$$$$$$.O++++++@@@@@@@@@+++oooo                           .$$$$$$$$$$$$$$$$$$$$$$$$",
"$$$$$$$$$$$$$$$$$$$$$$$$.O++++++@@@@@@@@@+++oooo                           .$$$$$$$$$$$$$$$$$$$$$$$$",
"$$$$$$$$$$$$$$$$$$$$$$$$.O++++++@@@@@@@@@+++oooo                           .$$$$$$$$$$$$$$$$$$$$$$$$",
"$$$$$$$$$$$$$$$$$$$$$$$$.O++++++@@@@@@@@@+++oooo                           .$$$$$$$$$$$$$$$$$$$$$$$$",
"$$$$$$$$$$$$$$$$$$$$$$$$.O++++++@@@@@@@@@+++oooo                           .$$$$$$$$$$$$$$$$$$$$$$$$",
"$$$$$$$$$$$$$$$$$$$$$$$$.O++++++@@@@@@@@@+++oooo                           .$$$$$$$$$$$$$$$$$$$$$$$$",
"$$$$$$$$$$$$$$$$$$$$$$$$.O++++++@@@@@@@@@+++oooo                           .$$$$$$$$$$$$$$$$$$$$$$$$",
"$$$$$$$$$$$$$$$$$$$$$$$$.O++++++@@@@@@@@@+++oooo                           .$$$$$$$$$$$$$$$$$$$$$$$$",
"$$$$$$$$$$$$$$$$$$$$$$$$.O++++++@@XXXXX@@+++oooo                           .$$$$$$$$$$$$$$$$$$$$$$$$",
"$$$$$$$$$$$$$$$$$$$$$$$$.O++++++@@XXXXX@@+++oooo                           .$$$$$$$$$$$$$$$$$$$$$$$$",
"$$$$$$$$$$$$$$$$$$$$$$$$.O++++++@@XXXXX@@+++oooo                           .$$$$$$$$$$$$$$$$$$$$$$$$",
"$$$$$$$$$$$$$$$$$$$$$$$$.O++++++@@XXXXX@@+++oooo                           .$$$$$$$$$$$$$$$$$$$$$$$$",
"$$$$$$$$$$$$$$$$$$$$$$$$.O++++++@@XXXXX@@+++oooo                           .$$$$$$$$$$$$$$$$$$$$$$$$",
"$$$$$$$$$$$$$$$$$$$$$$$$.O++++++@@XXXXX@@+++oooo                           .$$$$$$$$$$$$$$$$$$$$$$$$",
"$$$$$$$$$$$$$$$$$$$$$$$$.O++++++@XXXXXXX@+++oooo                           .$$$$$$$$$$$$$$$$$$$$$$$$",
"$$$$$$$$$$$$$$$$$$$$$$$$.O++++++@XXXXXXX@+++oooo                           .$$$$$$$$$$$$$$$$$$$$$$$$",
"$$$$$$$$$$$$$$$$$$$$$$$$.O++++++XXXXXXXXX+++oooo                           .$$$$$$$$$$$$$$$$$$$$$$$$",
"$$$$$$$$$$$$$$$$$$$$$$$$.O++++++XXXXXXXXX+++oooo                           .$$$$$$$$$$$$$$$$$$$$$$$$",
"$$$$$$$$$$$$$$$$$$$$$$$$.O++++++XXXXXXXXX+++oooo                           .$$$$$$$$$$$$$$$$$$$$$$$$",
"$$$$$$$$$$$$$$$$$$$$$$$$.O++++++XXXXXXXXX+++oooo                           .$$$$$$$$$$$$$$$$$$$$$$$$",
"$$$$$$$$$$$$$$$$$$$$$$$$.O++++++XXXXXXXXX+++oooo                           .$$$$$$$$$$$$$$$$$$$$$$$$",
"$$$$$$$$$$$$$$$$$$$$$$$$.O++++++XXXXXXXXX+++oooo                           .$$$$$$$$$$$$$$$$$$$$$$$$",
"$$$$$$$$$$$$$$$$$$$$$$$$.O++++++XXXXXXXXX+++oooo                           .$$$$$$$$$$$$$$$$$$$$$$$$",
"$$$$$$$$$$$$$$$$$$$$$$$$.O++++++XXXXXXXXX+++oooo                           .$$$$$$$$$$$$$$$$$$$$$$$$",
"$$$$$$$$$$$$$$$$$$$$$$$$.O++++++XXXXXXXXX+++oooo                           .$$$$$$$$$$$$$$$$$$$$$$$$",
"$$$$$$$$$$$$$$$$$$$$$$$$.O++++++XXXXXXXXX+++oooo                           .$$$$$$$$$$$$$$$$$$$$$$$$",
"$$$$$$$$$$$$$$$$$$$$$$$$.O++++++XXXXXXXXX+++oooo                           .$$$$$$$$$$$$$$$$$$$$$$$$",
"$$$$$$$$$$$$$$$$$$$$$$$$.O++++++XXXXXXXXX+++oooo                           .$$$$$$$$$$$$$$$$$$$$$$$$",
"$$$$$$$$$$$$$$$$$$$$$$$$.O++++++XXXXXXXXX+++oooo                           .$$$$$$$$$$$$$$$$$$$$$$$$",
"$$$$$$$$$$$$$$$$$$$$$$$$.O++++++XXXXXXXXX+++oooo                           .$$$$$$$$$$$$$$$$$$$$$$$$",
"$$$$$$$$$$$$$$$$$$$$$$$$.O++++++XXXXXXXXX+++oooo                           .$$$$$$$$$$$$$$$$$$$$$$$$",
"$$$$$$$$$$$$$$$$$$$$$$$$.O++++++XXXXXXXXX+++oooo                           .$$$$$$$$$$$$$$$$$$$$$$$$",
"$$$$$$$$$$$$$$$$$$$$$$$$.O++++++XXXXXXXXX+++oooo                           .$$$$$$$$$$$$$$$$$$$$$$$$",
"$$$$$$$$$$$$$$$$$$$$$$$$.O++++++XXXXXXXXX+++oooo                           .$$$$$$$$$$$$$$$$$$$$$$$$",
"$$$$$$$$$$$$$$$$$$$$$$$$.O++++++XXXXXXXXX+++oooo                           .$$$$$$$$$$$$$$$$$$$$$$$$",
"$$$$$$$$$$$$$$$$$$$$$$$$.O++++++XXXXXXXXX+++oooo                           .$$$$$$$$$$$$$$$$$$$$$$$$",
"$$$$$$$$$$$$$$$$$$$$$$$$.O++++++XXXXXXXXX+++oooo                           .$$$$$$$$$$$$$$$$$$$$$$$$",
"$$$$$$$$$$$$$$$$$$$$$$$$.O++++++XXXXXXXXX+++oooo                           .$$$$$$$$$$$$$$$$$$$$$$$$",
"$$$$$$$$$$$$$$$$$$$$$$$$.O++++++XXXXXXXXX+++oooo                           .$$$$$$$$$$$$$$$$$$$$$$$$",
"$$$$$$$$$$$$$$$$$$$$$$$$.O++++++XXXXXXXXX+++oooo                           .$$$$$$$$$$$$$$$$$$$$$$$$",
"$$$$$$$$$$$$$$$$$$$$$$$$.O++++++XXXXXXXXX+++oooo                           .$$$$$$$$$$$$$$$$$$$$$$$$",
"$$$$$$$$$$$$$$$$$$$$$$$$.O++++++XXXXXXXXX+++oooo                           .$$$$$$$$$$$$$$$$$$$$$$$$",
"$$$$$$$$$$$$$$$$$$$$$$$$.O++++++XXXXXXXXX+++oooo                           .$$$$$$$$$$$$$$$$$$$$$$$$",
"$$$$$$$$$$$$$$$$$$$$$$$$.O++++++XXXXXXXXX+++oooo                           .$$$$$$$$$$$$$$$$$$$$$$$$",
"$$$$$$$$$$$$$$$$$$$$$$$$.O++++++XXXXXXXXX+++oooo                           .$$$$$$$$$$$$$$$$$$$$$$$$",
"$$$$$$$$$$$$$$$$$$$$$$$$.O++++++XXXXXXXXX+++oooo                           .$$$$$$$$$$$$$$$$$$$$$$$$",
"$$$$$$$$$$$$$$$$$$$$$$$$.O++++++XXXXXXXXX+++oooo                           .$$$$$$$$$$$$$$$$$$$$$$$$",
"$$$$$$$$$$$$$$$$$$$$$$$$.O++++++XXXXXXXXX+++oooo                           .$$$$$$$$$$$$$$$$$$$$$$$$",
"$$$$$$$$$$$$$$$$$$$$$$$$.O++++++XXXXXXXXX+++oooo                           .$$$$$$$$$$$$$$$$$$$$$$$$",
"$$$$$$$$$$$$$$$$$$$$$$$$.O++++++.........+++oooo                           .$$$$$$$$$$$$$$$$$$$$$$$$",
"$$$$$$$$$$$$$$$$$$$$$$$$.O++++++OOOOOOOOO+++oooo                           .$$$$$$$$$$$$$$$$$$$$$$$$",
"$$$$$$$$$$$$$$$$$$$$$$$$.O++++++++++++++++++oooo                           .$$$$$$$$$$$$$$$$$$$$$$$$",
"$$$$$$$$$$$$$$$$$$$$$$$$.O++++++++++++++++++oooo                           .$$$$$$$$$$$$$$$$$$$$$$$$",
"$$$$$$$$$$$$$$$$$$$$$$$$.O++++++++++++++++++oooo                           .$$$$$$$$$$$$$$$$$$$$$$$$",
"$$$$$$$$$$$$$$$$$$$$$$$$.O++++++++++++++++++oooo                           .$$$$$$$$$$$$$$$$$$$$$$$$",
"$$$$$$$$$$$$$$$$$$$$$$$$.O++++++++++++++++++oooo                           .$$$$$$$$$$$$$$$$$$$$$$$$",
"$$$$$$$$$$$$$$$$$$$$$$$$.O++++++++++++++++++oooo                           .$$$$$$$$$$$$$$$$$$$$$$$$",
"$$$$$$$$$$$$$$$$$$$$$$$$.O++++++++++++++++++oooo                           .$$$$$$$$$$$$$$$$$$$$$$$$",
"$$$$$$$$$$$$$$$$$$$$$$$$.O++++++++++++++++++oooo                           .$$$$$$$$$$$$$$$$$$$$$$$$",
"$$$$$$$$$$$$$$$$$$$$$$$$.O++++++++++++++++++oooo                           .$$$$$$$$$$$$$$$$$$$$$$$$",
"$$$$$$$$$$$$$$$$$$$$$$$$.O++++++++++++++++++oooo                           .$$$$$$$$$$$$$$$$$$$$$$$$",
"$$$$$$$$$$$$$$$$$$$$$$$$.O++++++++++++++++++oooo                           .$$$$$$$$$$$$$$$$$$$$$$$$",
"$$$$$$$$$$$$$$$$$$$$$$$$.O++++++++++++++++++oooo                           .$$$$$$$$$$$$$$$$$$$$$$$$",
"$$$$$$$$$$$$$$$$$$$$$$$$.O++++++++++++++++++oooo                           .$$$$$$$$$$$$$$$$$$$$$$$$",
"$$$$$$$$$$$$$$$$$$$$$$$$.O++++++++++++++++++oooo                           .$$$$$$$$$$$$$$$$$$$$$$$$",
"$$$$$$$$$$$$$$$$$$$$$$$$.O++++++++++++++++++oooo                           .$$$$$$$$$$$$$$$$$$$$$$$$",
"$$$$$$$$$$$$$$$$$$$$$$$$.O++++++++++++++++++oooo                           .$$$$$$$$$$$$$$$$$$$$$$$$",
"$$$$$$$$$$$$$$$$$$$$$$$$.O++++++++++++++++++oooo                           .$$$$$$$$$$$$$$$$$$$$$$$$",
"$$$$$$$$$$$$$$$$$$$$$$$$.O++++++++++++++++++oooo                           .$$$$$$$$$$$$$$$$$$$$$$$$",
"$$$$$$$$$$$$$$$$$$$$$$$$.O++++++++++++++++++oooo                           .$$$$$$$$$$$$$$$$$$$$$$$$",
"$$$$$$$$$$$$$$$$$$$$$$$$.O++++++++++++++++++oooo                           .$$$$$$$$$$$$$$$$$$$$$$$$",
"$$$$$$$$$$$$$$$$$$$$$$$$.O++++++++++++++++++oooo                           .$$$$$$$$$$$$$$$$$$$$$$$$",
"$$$$$$$$$$$$$$$$$$$$$$$$.O++++++++++++++++++oooo                           .$$$$$$$$$$$$$$$$$$$$$$$$",
"$$$$$$$$$$$$$$$$$$$$$$$$.O++++++++++++++++++oooo                           .$$$$$$$$$$$$$$$$$$$$$$$$",
"$$$$$$$$$$$$$$$$$$$$$$$$.O++++++++++++++++++oooo                           .$$$$$$$$$$$$$$$$$$$$$$$$",
"$$$$$$$$$$$$$$$$$$$$$$$$.OOOOOOOOOOOOOOOOOOOoooo                           .$$$$$$$$$$$$$$$$$$$$$$$$",
"$$$$$$$$$$$$$$$$$$$$$$$$....................................................$$$$$$$$$$$$$$$$$$$$$$$$"
};
