/* XPM */
static char *result[] = {
/* columns rows colors chars-per-pixel */
"100 100 9 1 ",
"  c black",
". c #202125",
"X c #466925",
"o c #46484E",
"O c #58595E",
"+ c #76777B",
"@ c #6FB928",
"# c #B1EA7A",
"$ c #808B9E",
/* pixels */
"$$$$$$$$$$$$$$$$$$$$$$$$....................................................$$$$$$$$$$$$$$$$$$$$$$$$",
"$$$$$$$$$$$$$$$$$$$$$$$$.OOOOOOOOOOOOOOOOOOOOOOOOOOOOOOOOOOO               .$$$$$$$$$$$$$$$$$$$$$$$$",
"$$$$$$$$$$$$$$$$$$$$$$$$.O++++++++++++++++++++++++++++oooooo               .$$$$$$$$$$$$$$$$$$$$$$$$",
"$$$$$$$$$$$$$$$$$$$$$$$$.O++++++++++++++++++++++++++++oooooo               .$$$$$$$$$$$$$$$$$$$$$$$$",
"$$$$$$$$$$$$$$$$$$$$$$$$.O+++++++....................+oooooo               .$$$$$$$$$$$$$$$$$$$$$$$$",
"$$$$$$$$$$$$$$$$$$$$$$$$.O+++++++.##################.+oooooo               .$$$$$$$$$$$$$$$$$$$$$$$$",
"$$$$$$$$$$$$$$$$$$$$$$$$.O+++++++.####@@@@@@@@@@####.+oooooo               .$$$$$$$$$$$$$$$$$$$$$$$$",
"$$$$$$$$$$$$$$$$$$$$$$$$.O+++++++.##@@@@@@@@@@@@@@##.+oooooo               .$$$$$$$$$$$$$$$$$$$$$$$$",
"$$$$$$$$$$$$$$$$$$$$$$$$.O+++++++.#@@@@@@@@@@@@@@@@#.+oooooo               .$$$$$$$$$$$$$$$$$$$$$$$$",
"$$$$$$$$$$$$$$$$$$$$$$$$.O+++++++.#@@@@@@@@@@@@@@@@#.+oooooo               .$$$$$$$$$$$$$$$$$$$$$$$$",
"$$$$$$$$$$$$$$$$$$$$$$$$.O+++++++.#@@@@@@@@@@@@@@@@#.+oooooo               .$$$$$$$$$$$$$$$$$$$$$$$$",
"$$$$$$$$$$$$$$$$$$$$$$$$.O+++++++.#@@@@@@@@@@@@@@@@#.+oooooo               .$$$$$$$$$$$$$$$$$$$$$$$$",
"$$$$$$$$$$$$$$$$$$$$$$$$.O+++++++.#@@@@@@@@@@@@@@@@#.+oooooo               .$$$$$$$$$$$$$$$$$$$$$$$$",
"$$$$$$$$$$$$$$$$$$$$$$$$.O+++++++.#@@@@@@@@@@@@@@@@#.+oooooo               .$$$$$$$$$$$$$$$$$$$$$$$$",
"$$$$$$$$$$$$$$$$$$$$$$$$.O+++++++.#@@@@@@@@@@@@@@@@#.+oooooo               .$$$$$$$$$$$$$$$$$$$$$$$$",
"$$$$$$$$$$$$$$$$$$$$$$$$.O+++++++.#@@@@@@@@@@@@@@@@#.+oooooo               .$$$$$$$$$$$$$$$$$$$$$$$$",
"$$$$$$$$$$$$$$$$$$$$$$$$.O+++++++.#@@@@@@@@@@@@@@@@#.+oooooo               .$$$$$$$$$$$$$$$$$$$$$$$$",
"$$$$$$$$$$$$$$$$$$$$$$$$.O+++++++.@@@@@@@@@@@@@@@@@@.+oooooo               .$$$$$$$$$$$$$$$$$$$$$$$$",
"$$$$$$$$$$$$$$$$$$$$$$$$.O+++++++.@@@@@@@@@@@@@@@@@@.+oooooo               .$$$$$$$$$$$$$$$$$$$$$$$$",
"$$$$$$$$$$$$$$$$$$$$$$$$.O+++++++.@@@@@@@@@@@@@@@@@@.+oooooo               .$$$$$$$$$$$$$$$$$$$$$$$$",
"$$$$$$$$$$$$$$$$$$$$$$$$.O+++++++.@@@@@@@@@@@@@@@@@@.+oooooo               .$$$$$$$$$$$$$$$$$$$$$$$$",
"$$$$$$$$$$$$$$$$$$$$$$$$.O+++++++.@@@@@@@@@@@@@@@@@@.+oooooo               .$$$$$$$$$$$$$$$$$$$$$$$$",
"$$$$$$$$$$$$$$$$$$$$$$$$.O+++++++.@@@@@@@@@@@@@@@@@@.+oooooo               .$$$$$$$$$$$$$$$$$$$$$$$$",
"$$$$$$$$$$$$$$$$$$$$$$$$.O+++++++.@@@@@@@@@@@@@@@@@@.+oooooo               .$$$$$$$$$$$$$$$$$$$$$$$$",
"$$$$$$$$$$$$$$$$$$$$$$$$.O+++++++.@@@@@@@@@@@@@@@@@@.+oooooo               .$$$$$$$$$$$$$$$$$$$$$$$$",
"$$$$$$$$$$$$$$$$$$$$$$$$.O+++++++.@@@@@@@@@@@@@@@@@@.+oooooo               .$$$$$$$$$$$$$$$$$$$$$$$$",
"$$$$$$$$$$$$$$$$$$$$$$$$.O+++++++.@@@@@@@@@@@@@@@@@@.+oooooo               .$$$$$$$$$$$$$$$$$$$$$$$$",
"$$$$$$$$$$$$$$$$$$$$$$$$.O+++++++.@@@@@@@@@@@@@@@@@@.+oooooo               .$$$$$$$$$$$$$$$$$$$$$$$$",
"$$$$$$$$$$$$$$$$$$$$$$$$.O+++++++.@@@@@@@@@@@@@@@@@@.+oooooo               .$$$$$$$$$$$$$$$$$$$$$$$$",
"$$$$$$$$$$$$$$$$$$$$$$$$.O+++++++.@@@@@@@@@@@@@@@@@@.+oooooo               .$$$$$$$$$$$$$$$$$$$$$$$$",
"$$$$$$$$$$$$$$$$$$$$$$$$.O+++++++.@@@@@@@@@@@@@@@@@@.+oooooo               .$$$$$$$$$$$$$$$$$$$$$$$$",
"$$$$$$$$$$$$$$$$$$$$$$$$.O+++++++.@@@@@XXXXXXXX@@@@@.+oooooo               .$$$$$$$$$$$$$$$$$$$$$$$$",
"$$$$$$$$$$$$$$$$$$$$$$$$.O+++++++.@@@@@XXXXXXXX@@@@@.+oooooo               .$$$$$$$$$$$$$$$$$$$$$$$$",
"$$$$$$$$$$$$$$$$$$$$$$$$.O+++++++.@@@@XXXXXXXXX@@@@@.+oooooo               .$$$$$$$$$$$$$$$$$$$$$$$$",
"$$$$$$$$$$$$$$$$$$$$$$$$.O+++++++.@@@@XXXXXXXXXX@@@@.+oooooo               .$$$$$$$$$$$$$$$$$$$$$$$$",
"$$$$$$$$$$$$$$$$$$$$$$$$.O+++++++.@@@XXXXXXXXXXXX@@@.+oooooo               .$$$$$$$$$$$$$$$$$$$$$$$$",
"$$$$$$$$$$$$$$$$$$$$$$$$.O+++++++.@@@XXXXXXXXXXXX@@@.+oooooo               .$$$$$$$$$$$$$$$$$$$$$$$$",
"$$$$$$$$$$$$$$$$$$$$$$$$.O+++++++.@@XXXXXXXXXXXXXX@@.+oooooo               .$$$$$$$$$$$$$$$$$$$$$$$$",
"$$$$$$$$$$$$$$$$$$$$$$$$.O+++++++.@@XXXXXXXXXXXXXX@@.+oooooo               .$$$$$$$$$$$$$$$$$$$$$$$$",
"$$$$$$$$$$$$$$$$$$$$$$$$.O+++++++.@XXXXXXXXXXXXXXXX@.+oooooo               .$$$$$$$$$$$$$$$$$$$$$$$$",
"$$$$$$$$$$$$$$$$$$$$$$$$.O+++++++.@XXXXXXXXXXXXXXXX@.+oooooo               .$$$$$$$$$$$$$$$$$$$$$$$$",
"$$$$$$$$$$$$$$$$$$$$$$$$.O+++++++.XXXXXXXXXXXXXXXXXX.+oooooo               .$$$$$$$$$$$$$$$$$$$$$$$$",
"$$$$$$$$$$$$$$$$$$$$$$$$.O+++++++.XXXXXXXXXXXXXXXXXX.+oooooo               .$$$$$$$$$$$$$$$$$$$$$$$$",
"$$$$$$$$$$$$$$$$$$$$$$$$.O+++++++.XXXXXXXXXXXXXXXXXX.+oooooo               .$$$$$$$$$$$$$$$$$$$$$$$$",
"$$$$$$$$$$$$$$$$$$$$$$$$.O+++++++.XXXXXXXXXXXXXXXXXX.+oooooo               .$$$$$$$$$$$$$$$$$$$$$$$$",
"$$$$$$$$$$$$$$$$$$$$$$$$.O+++++++.XXXXXXXXXXXXXXXXXX.+oooooo               .$$$$$$$$$$$$$$$$$$$$$$$$",
"$$$$$$$$$$$$$$$$$$$$$$$$.O+++++++.XXXXXXXXXXXXXXXXXX.+oooooo               .$$$$$$$$$$$$$$$$$$$$$$$$",
"$$$$$$$$$$$$$$$$$$$$$$$$.O+++++++.XXXXXXXXXXXXXXXXXX.+oooooo               .$$$$$$$$$$$$$$$$$$$$$$$$",
"$$$$$$$$$$$$$$$$$$$$$$$$.O+++++++.XXXXXXXXXXXXXXXXXX.+oooooo               .$$$$$$$$$$$$$$$$$$$$$$$$",
"$$$$$$$$$$$$$$$$$$$$$$$$.O+++++++.XXXXXXXXXXXXXXXXXX.+oooooo               .$$$$$$$$$$$$$$$$$$$$$$$$",
"$$$$$$$$$$$$$$$$$$$$$$$$.O+++++++.XXXXXXXXXXXXXXXXXX.+oooooo               .$$$$$$$$$$$$$$$$$$$$$$$$",
"$$$$$$$$$$$$$$$$$$$$$$$$.O+++++++.XXXXXXXXXXXXXXXXXX.+oooooo               .$$$$$$$$$$$$$$$$$$$$$$$$",
"$$$$$$$$$$$$$$$$$$$$$$$$.O+++++++.XXXXXXXXXXXXXXXXXX.+oooooo               .$$$$$$$$$$$$$$$$$$$$$$$$",
"$$$$$$$$$$$$$$$$$$$$$$$$.O+++++++.XXXXXXXXXXXXXXXXXX.+oooooo               .$$$$$$$$$$$$$$$$$$$$$$$$",
"$$$$$$$$$$$$$$$$$$$$$$$$.O+++++++.XXXXXXXXXXXXXXXXXX.+oooooo               .$$$$$$$$$$$$$$$$$$$$$$$$",
"$$$$$$$$$$$$$$$$$$$$$$$$.O+++++++.XXXXXXXXXXXXXXXXXX.+oooooo               .$$$$$$$$$$$$$$$$$$$$$$$$",
"$$$$$$$$$$$$$$$$$$$$$$$$.O+++++++.XXXXXXXXXXXXXXXXXX.+oooooo               .$$$$$$$$$$$$$$$$$$$$$$$$",
"$$$$$$$$$$$$$$$$$$$$$$$$.O+++++++.XXXXXXXXXXXXXXXXXX.+oooooo               .$$$$$$$$$$$$$$$$$$$$$$$$",
"$$$$$$$$$$$$$$$$$$$$$$$$.O+++++++.XXXXXXXXXXXXXXXXXX.+oooooo               .$$$$$$$$$$$$$$$$$$$$$$$$",
"$$$$$$$$$$$$$$$$$$$$$$$$.O+++++++.XXXXXXXXXXXXXXXXXX.+oooooo               .$$$$$$$$$$$$$$$$$$$$$$$$",
"$$$$$$$$$$$$$$$$$$$$$$$$.O+++++++.XXXXXXXXXXXXXXXXXX.+oooooo               .$$$$$$$$$$$$$$$$$$$$$$$$",
"$$$$$$$$$$$$$$$$$$$$$$$$.O+++++++.XXXXXXXXXXXXXXXXXX.+oooooo               .$$$$$$$$$$$$$$$$$$$$$$$$",
"$$$$$$$$$$$$$$$$$$$$$$$$.O+++++++.XXXXXXXXXXXXXXXXXX.+oooooo               .$$$$$$$$$$$$$$$$$$$$$$$$",
"$$$$$$$$$$$$$$$$$$$$$$$$.O+++++++.XXXXXXXXXXXXXXXXXX.+oooooo               .$$$$$$$$$$$$$$$$$$$$$$$$",
"$$$$$$$$$$$$$$$$$$$$$$$$.O+++++++.XXXXXXXXXXXXXXXXXX.+oooooo               .$$$$$$$$$$$$$$$$$$$$$$$$",
"$$$$$$$$$$$$$$$$$$$$$$$$.O+++++++.XXXXXXXXXXXXXXXXXX.+oooooo               .$$$$$$$$$$$$$$$$$$$$$$$$",
"$$$$$$$$$$$$$$$$$$$$$$$$.O+++++++.XXXXXXXXXXXXXXXXXX.+oooooo               .$$$$$$$$$$$$$$$$$$$$$$$$",
"$$$$$$$$$$$$$$$$$$$$$$$$.O+++++++.XXXXXXXXXXXXXXXXXX.+oooooo               .$$$$$$$$$$$$$$$$$$$$$$$$",
"$$$$$$$$$$$$$$$$$$$$$$$$.O+++++++.XXXXXXXXXXXXXXXXXX.+oooooo               .$$$$$$$$$$$$$$$$$$$$$$$$",
"$$$$$$$$$$$$$$$$$$$$$$$$.O+++++++.XXXXXXXXXXXXXXXXXX.+oooooo               .$$$$$$$$$$$$$$$$$$$$$$$$",
"$$$$$$$$$$$$$$$$$$$$$$$$.O+++++++.XXXXXXXXXXXXXXXXXX.+oooooo               .$$$$$$$$$$$$$$$$$$$$$$$$",
"$$$$$$$$$$$$$$$$$$$$$$$$.O+++++++.XXXXXXXXXXXXXXXXXX.+oooooo               .$$$$$$$$$$$$$$$$$$$$$$$$",
"$$$$$$$$$$$$$$$$$$$$$$$$.O+++++++....................+oooooo               .$$$$$$$$$$$$$$$$$$$$$$$$",
"$$$$$$$$$$$$$$$$$$$$$$$$.O+++++++++OOOOOOOOOOOOOOO++++oooooo               .$$$$$$$$$$$$$$$$$$$$$$$$",
"$$$$$$$$$$$$$$$$$$$$$$$$.O++++++++++++++++++++++++++++oooooo               .$$$$$$$$$$$$$$$$$$$$$$$$",
"$$$$$$$$$$$$$$$$$$$$$$$$.O++++++++++++++++++++++++++++oooooo               .$$$$$$$$$$$$$$$$$$$$$$$$",
"$$$$$$$$$$$$$$$$$$$$$$$$.O++++++++++++++++++++++++++++oooooo               .$$$$$$$$$$$$$$$$$$$$$$$$",
"$$$$$$$$$$$$$$$$$$$$$$$$.O++++++++++++++++++++++++++++oooooo               .$$$$$$$$$$$$$$$$$$$$$$$$",
"$$$$$$$$$$$$$$$$$$$$$$$$.O++++++++++++++++++++++++++++oooooo               .$$$$$$$$$$$$$$$$$$$$$$$$",
"$$$$$$$$$$$$$$$$$$$$$$$$.O++++++++++++++++++++++++++++oooooo               .$$$$$$$$$$$$$$$$$$$$$$$$",
"$$$$$$$$$$$$$$$$$$$$$$$$.O++++++++++++++++++++++++++++oooooo               .$$$$$$$$$$$$$$$$$$$$$$$$",
"$$$$$$$$$$$$$$$$$$$$$$$$.O++++++++++++++++++++++++++++oooooo               .$$$$$$$$$$$$$$$$$$$$$$$$",
"$$$$$$$$$$$$$$$$$$$$$$$$.O++++++++++++++++++++++++++++oooooo               .$$$$$$$$$$$$$$$$$$$$$$$$",
"$$$$$$$$$$$$$$$$$$$$$$$$.O++++++++++++++++++++++++++++oooooo               .$$$$$$$$$$$$$$$$$$$$$$$$",
"$$$$$$$$$$$$$$$$$$$$$$$$.O++++++++++++++++++++++++++++oooooo               .$$$$$$$$$$$$$$$$$$$$$$$$",
"$$$$$$$$$$$$$$$$$$$$$$$$.O++++++++++++++++++++++++++++oooooo               .$$$$$$$$$$$$$$$$$$$$$$$$",
"$$$$$$$$$$$$$$$$$$$$$$$$.O++++++++++++++++++++++++++++oooooo               .$$$$$$$$$$$$$$$$$$$$$$$$",
"$$$$$$$$$$$$$$$$$$$$$$$$.O++++++++++++++++++++++++++++oooooo               .$$$$$$$$$$$$$$$$$$$$$$$$",
"$$$$$$$$$$$$$$$$$$$$$$$$.O++++++++++++++++++++++++++++oooooo               .$$$$$$$$$$$$$$$$$$$$$$$$",
"$$$$$$$$$$$$$$$$$$$$$$$$.O++++++++++++++++++++++++++++oooooo               .$$$$$$$$$$$$$$$$$$$$$$$$",
"$$$$$$$$$$$$$$$$$$$$$$$$.O++++++++++++++++++++++++++++oooooo               .$$$$$$$$$$$$$$$$$$$$$$$$",
"$$$$$$$$$$$$$$$$$$$$$$$$.O++++++++++++++++++++++++++++oooooo               .$$$$$$$$$$$$$$$$$$$$$$$$",
"$$$$$$$$$$$$$$$$$$$$$$$$.O++++++++++++++++++++++++++++oooooo               .$$$$$$$$$$$$$$$$$$$$$$$$",
"$$$$$$$$$$$$$$$$$$$$$$$$.O++++++++++++++++++++++++++++oooooo               .$$$$$$$$$$$$$$$$$$$$$$$$",
"$$$$$$$$$$$$$$$$$$$$$$$$.O++++++++++++++++++++++++++++oooooo               .$$$$$$$$$$$$$$$$$$$$$$$$",
"$$$$$$$$$$$$$$$$$$$$$$$$.O++++++++++++++++++++++++++++oooooo               .$$$$$$$$$$$$$$$$$$$$$$$$",
"$$$$$$$$$$$$$$$$$$$$$$$$.O++++++++++++++++++++++++++++oooooo               .$$$$$$$$$$$$$$$$$$$$$$$$",
"$$$$$$$$$$$$$$$$$$$$$$$$.O++++++++++++++++++++++++++++oooooo               .$$$$$$$$$$$$$$$$$$$$$$$$",
"$$$$$$$$$$$$$$$$$$$$$$$$.OOOOOOOOOOOOOOOOOOOOOOOOOOOOOoooooo               .$$$$$$$$$$$$$$$$$$$$$$$$",
"$$$$$$$$$$$$$$$$$$$$$$$$....................................................$$$$$$$$$$$$$$$$$$$$$$$$"
};
