/* XPM */
static char *result[] = {
/* columns rows colors chars-per-pixel */
"100 100 10 1 ",
"  c black",
". c #202125",
"X c #466925",
"o c #46484E",
"O c #58595E",
"+ c #76777B",
"@ c #6FB928",
"# c #B1EA7A",
"$ c #808B9E",
"% c #C1C1C1",
/* pixels */
"$$$$$$$$$$$$$$$$$$$$$$$$....................................................$$$$$$$$$$$$$$$$$$$$$$$$",
"$$$$$$$$$$$$$$$$$$$$$$$$.OOOOOOOOOOOOOOOOOOOOOOOOOOOOOOOOOOOOOOOOOooo      .$$$$$$$$$$$$$$$$$$$$$$$$",
"$$$$$$$$$$$$$$$$$$$$$$$$.O++++++++++++++++++++++++++++++++++++++++ooo      .$$$$$$$$$$$$$$$$$$$$$$$$",
"$$$$$$$$$$$$$$$$$$$$$$$$.O++++++++++++++++++++++++++++++++++++++++ooo      .$$$$$$$$$$$$$$$$$$$$$$$$",
"$$$$$$$$$$$$$$$$$$$$$$$$.O+++++++++++....................+++++++++ooo      .$$$$$$$$$$$$$$$$$$$$$$$$",
"$$$$$$$$$$$$$$$$$$$$$$$$.O+++++++++++.##################.+++++++++ooo      .$$$$$$$$$$$$$$$$$$$$$$$$",
"$$$$$$$$$$$$$$$$$$$$$$$$.O+++++++++++.####@@@@@@@@@@####.+++++++++ooo      .$$$$$$$$$$$$$$$$$$$$$$$$",
"$$$$$$$$$$$$$$$$$$$$$$$$.O+++++++++++.##@@@@@@@@@@@@@@##.+++++++++ooo      .$$$$$$$$$$$$$$$$$$$$$$$$",
"$$$$$$$$$$$$$$$$$$$$$$$$.O+++++++++++.#@@@@@@@@@@@@@@@@#.+++++++++ooo      .$$$$$$$$$$$$$$$$$$$$$$$$",
"$$$$$$$$$$$$$$$$$$$$$$$$.O+++++++++++.#@@@@@@@@@@@@@@@@#.+++++++++ooo      .$$$$$$$$$$$$$$$$$$$$$$$$",
"$$$$$$$$$$$$$$$$$$$$$$$$.O+++++++++++.#@@@@@@@@@@@@@@@@#.++++.....ooo      .$$$$$$$$$$$$$$$$$$$$$$$$",
"$$$$$$$$$$$$$$$$$$$$$$$$.O+++++++++++.#@@@@@@@@@@@@@@@@#.++++.OOO.ooo      .$$$$$$$$$$$$$$$$$$$$$$$$",
"$$$$$$$$$$$$$$$$$$$$$$$$.O+++++++++++.#@@@@@@@@@@@@@@@@#.++++.O%%.ooo      .$$$$$$$$$$$$$$$$$$$$$$$$",
"$$$$$$$$$$$$$$$$$$$$$$$$.O+++++++++++.#@@@@@@@@@@@@@@@@#.++++.O%%.ooo      .$$$$$$$$$$$$$$$$$$$$$$$$",
"$$$$$$$$$$$$$$$$$$$$$$$$.O+++++++++++.#@@@@@@@@@@@@@@@@#.++++.O%%.ooo      .$$$$$$$$$$$$$$$$$$$$$$$$",
"$$$$$$$$$$$$$$$$$$$$$$$$.O+++++++++++.#@@@@@@@@@@@@@@@@#.++++.O%%.ooo      .$$$$$$$$$$$$$$$$$$$$$$$$",
"$$$$$$$$$$$$$$$$$$$$$$$$.O+++++++++++.#@@@@@@@@@@@@@@@@#.++++.O%%.ooo      .$$$$$$$$$$$$$$$$$$$$$$$$",
"$$$$$$$$$$$$$$$$$$$$$$$$.O+++++++++++.@@@@@@@@@@@@@@@@@@.++++.O%%.ooo      .$$$$$$$$$$$$$$$$$$$$$$$$",
"$$$$$$$$$$$$$$$$$$$$$$$$.O+++++++++++.@@@@@@@@@@@@@@@@@@.++++.O%%.ooo      .$$$$$$$$$$$$$$$$$$$$$$$$",
"$$$$$$$$$$$$$$$$$$$$$$$$.O+++++++++++.@@@@@@@@@@@@@@@@@@.++++.O%%.ooo      .$$$$$$$$$$$$$$$$$$$$$$$$",
"$$$$$$$$$$$$$$$$$$$$$$$$.O+++++++++++.@@@@@@@@@@@@@@@@@@.++++.O%%.ooo      .$$$$$$$$$$$$$$$$$$$$$$$$",
"$$$$$$$$$$$$$$$$$$$$$$$$.O+++++++++++.@@@@@@@@@@@@@@@@@@.++++.O%%.ooo      .$$$$$$$$$$$$$$$$$$$$$$$$",
"$$$$$$$$$$$$$$$$$$$$$$$$.O+++++++++++.@@@@@@@@@@@@@@@@@@.++++.O%%.ooo      .$$$$$$$$$$$$$$$$$$$$$$$$",
"$$$$$$$$$$$$$$$$$$$$$$$$.O+++++++++++.@@@@@@@@@@@@@@@@@@.++++.O%%.ooo      .$$$$$$$$$$$$$$$$$$$$$$$$",
"$$$$$$$$$$$$$$$$$$$$$$$$.O+++++++++++.@@@@@@@@@@@@@@@@@@.++++.O%%.ooo      .$$$$$$$$$$$$$$$$$$$$$$$$",
"$$$$$$$$$$$$$$$$$$$$$$$$.O+++++++++++.@@@@@@@@@@@@@@@@@@.++++.O%%.ooo      .$$$$$$$$$$$$$$$$$$$$$$$$",
"$$$$$$$$$$$$$$$$$$$$$$$$.O+++++++++++.@@@@@@@@@@@@@@@@@@.++++.O%%.ooo      .$$$$$$$$$$$$$$$$$$$$$$$$",
"$$$$$$$$$$$$$$$$$$$$$$$$.O+++++++++++.@@@@@@@@@@@@@@@@@@.++++.O%%.ooo      .$$$$$$$$$$$$$$$$$$$$$$$$",
"$$$$$$$$$$$$$$$$$$$$$$$$.O+++++++++++.@@@@@@@@@@@@@@@@@@.++++.O%%.ooo      .$$$$$$$$$$$$$$$$$$$$$$$$",
"$$$$$$$$$$$$$$$$$$$$$$$$.O+++++++++++.@@@@@@@@@@@@@@@@@@.++++.O%%.ooo      .$$$$$$$$$$$$$$$$$$$$$$$$",
"$$$$$$$$$$$$$$$$$$$$$$$$.O+++++++++++.@@@@@@@@@@@@@@@@@@.++++.O%%.ooo      .$$$$$$$$$$$$$$$$$$$$$$$$",
"$$$$$$$$$$$$$$$$$$$$$$$$.O+++++++++++.@@@@@XXXXXXXX@@@@@.++++.O%%.ooo      .$$$$$$$$$$$$$$$$$$$$$$$$",
"$$$$$$$$$$$$$$$$$$$$$$$$.O+++++++++++.@@@@@XXXXXXXX@@@@@.++++.O%%.ooo      .$$$$$$$$$$$$$$$$$$$$$$$$",
"$$$$$$$$$$$$$$$$$$$$$$$$.O+++++++++++.@@@@XXXXXXXXX@@@@@.++++.O%%.ooo      .$$$$$$$$$$$$$$$$$$$$$$$$",
"$$$$$$$$$$$$$$$$$$$$$$$$.O+++++++++++.@@@@XXXXXXXXXX@@@@.++++.O%%.ooo      .$$$$$$$$$$$$$$$$$$$$$$$$",
"$$$$$$$$$$$$$$$$$$$$$$$$.O+++++++++++.@@@XXXXXXXXXXXX@@@.++++.O%%.ooo      .$$$$$$$$$$$$$$$$$$$$$$$$",
"$$$$$$$$$$$$$$$$$$$$$$$$.O+++++++++++.@@@XXXXXXXXXXXX@@@.++++.O%%.ooo      .$$$$$$$$$$$$$$$$$$$$$$$$",
"$$$$$$$$$$$$$$$$$$$$$$$$.O+++++++++++.@@XXXXXXXXXXXXXX@@.++++.O%%.ooo      .$$$$$$$$$$$$$$$$$$$$$$$$",
"$$$$$$$$$$$$$$$$$$$$$$$$.O+++++++++++.@@XXXXXXXXXXXXXX@@.++++.O%%.ooo      .$$$$$$$$$$$$$$$$$$$$$$$$",
"$$$$$$$$$$$$$$$$$$$$$$$$.O+++++++++++.@XXXXXXXXXXXXXXXX@.++++.O%%.ooo      .$$$$$$$$$$$$$$$$$$$$$$$$",
"$$$$$$$$$$$$$$$$$$$$$$$$.O+++++++++++.@XXXXXXXXXXXXXXXX@.++++.O%%.ooo      .$$$$$$$$$$$$$$$$$$$$$$$$",
"$$$$$$$$$$$$$$$$$$$$$$$$.O+++++++++++.XXXXXXXXXXXXXXXXXX.++++.O%%.ooo      .$$$$$$$$$$$$$$$$$$$$$$$$",
"$$$$$$$$$$$$$$$$$$$$$$$$.O+++++++++++.XXXXXXXXXXXXXXXXXX.++++.O%%.ooo      .$$$$$$$$$$$$$$$$$$$$$$$$",
"$$$$$$$$$$$$$$$$$$$$$$$$.O+++++++++++.XXXXXXXXXXXXXXXXXX.++++.O%%.ooo      .$$$$$$$$$$$$$$$$$$$$$$$$",
"$$$$$$$$$$$$$$$$$$$$$$$$.O+++++++++++.XXXXXXXXXXXXXXXXXX.++++.O%%.ooo      .$$$$$$$$$$$$$$$$$$$$$$$$",
"$$$$$$$$$$$$$$$$$$$$$$$$.O+++++++++++.XXXXXXXXXXXXXXXXXX.++++.O%%.ooo      .$$$$$$$$$$$$$$$$$$$$$$$$",
"$$$$$$$$$$$$$$$$$$$$$$$$.O+++++++++++.XXXXXXXXXXXXXXXXXX.++++.O%%.ooo      .$$$$$$$$$$$$$$$$$$$$$$$$",
"$$$$$$$$$$$$$$$$$$$$$$$$.O+++++++++++.XXXXXXXXXXXXXXXXXX.++++.O%%.ooo      .$$$$$$$$$$$$$$$$$$$$$$$$",
"$$$$$$$$$$$$$$$$$$$$$$$$.O+++++++++++.XXXXXXXXXXXXXXXXXX.++++.O%%.ooo      .$$$$$$$$$$$$$$$$$$$$$$$$",
"$$$$$$$$$$$$$$$$$$$$$$$$.O+++++++++++.XXXXXXXXXXXXXXXXXX.++++.O%%.ooo      .$$$$$$$$$$$$$$$$$$$$$$$$",
"$$$$$$$$$$$$$$$$$$$$$$$$.O+++++++++++.XXXXXXXXXXXXXXXXXX.++++.O%%.ooo      .$$$$$$$$$$$$$$$$$$$$$$$$",
"$$$$$$$$$$$$$$$$$$$$$$$$.O+++++++++++.XXXXXXXXXXXXXXXXXX.++++.O%%.ooo      .$$$$$$$$$$$$$$$$$$$$$$$$",
"$$$$$$$$$$$$$$$$$$$$$$$$.O+++++++++++.XXXXXXXXXXXXXXXXXX.++++.O%%.ooo      .$$$$$$$$$$$$$$$$$$$$$$$$",
"$$$$$$$$$$$$$$$$$$$$$$$$.O+++++++++++.XXXXXXXXXXXXXXXXXX.++++.O%%.ooo      .$$$$$$$$$$$$$$$$$$$$$$$$",
"$$$$$$$$$$$$$$$$$$$$$$$$.O+++++++++++.XXXXXXXXXXXXXXXXXX.++++.O%%.ooo      .$$$$$$$$$$$$$$$$$$$$$$$$",
"$$$$$$$$$$$$$$$$$$$$$$$$.O+++++++++++.XXXXXXXXXXXXXXXXXX.++++.O%%.ooo      .$$$$$$$$$$$$$$$$$$$$$$$$",
"$$$$$$$$$$$$$$$$$$$$$$$$.O+++++++++++.XXXXXXXXXXXXXXXXXX.++++.O%%.ooo      .$$$$$$$$$$$$$$$$$$$$$$$$",
"$$$$$$$$$$$$$$$$$$$$$$$$.O+++++++++++.XXXXXXXXXXXXXXXXXX.++++.O%%.ooo      .$$$$$$$$$$$$$$$$$$$$$$$$",
"$$$$$$$$$$$$$$$$$$$$$$$$.O+++++++++++.XXXXXXXXXXXXXXXXXX.++++.O%%.ooo      .$$$$$$$$$$$$$$$$$$$$$$$$",
"$$$$$$$$$$$$$$$$$$$$$$$$.O+++++++++++.XXXXXXXXXXXXXXXXXX.++++.O%%.ooo      .$$$$$$$$$$$$$$$$$$$$$$$$",
"$$$$$$$$$$$$$$$$$$$$$$$$.O+++++++++++.XXXXXXXXXXXXXXXXXX.++++.O%%.ooo      .$$$$$$$$$$$$$$$$$$$$$$$$",
"$$$$$$$$$$$$$$$$$$$$$$$$.O+++++++++++.XXXXXXXXXXXXXXXXXX.++++.O%%.ooo      .$$$$$$$$$$$$$$$$$$$$$$$$",
"$$$$$$$$$$$$$$$$$$$$$$$$.O+++++++++++.XXXXXXXXXXXXXXXXXX.++++.O%%.ooo      .$$$$$$$$$$$$$$$$$$$$$$$$",
"$$$$$$$$$$$$$$$$$$$$$$$$.O+++++++++++.XXXXXXXXXXXXXXXXXX.++++.O%%.ooo      .$$$$$$$$$$$$$$$$$$$$$$$$",
"$$$$$$$$$$$$$$$$$$$$$$$$.O+++++++++++.XXXXXXXXXXXXXXXXXX.++++.O%%.ooo      .$$$$$$$$$$$$$$$$$$$$$$$$",
"$$$$$$$$$$$$$$$$$$$$$$$$.O+++++++++++.XXXXXXXXXXXXXXXXXX.++++.O%%.ooo      .$$$$$$$$$$$$$$$$$$$$$$$$",
"$$$$$$$$$$$$$$$$$$$$$$$$.O+++++++++++.XXXXXXXXXXXXXXXXXX.++++.O%%.ooo      .$$$$$$$$$$$$$$$$$$$$$$$$",
"$$$$$$$$$$$$$$$$$$$$$$$$.O+++++++++++.XXXXXXXXXXXXXXXXXX.++++.O%%.ooo      .$$$$$$$$$$$$$$$$$$$$$$$$",
"$$$$$$$$$$$$$$$$$$$$$$$$.O+++++++++++.XXXXXXXXXXXXXXXXXX.++++.O%%.ooo      .$$$$$$$$$$$$$$$$$$$$$$$$",
"$$$$$$$$$$$$$$$$$$$$$$$$.O+++++++++++.XXXXXXXXXXXXXXXXXX.++++.O%%.ooo      .$$$$$$$$$$$$$$$$$$$$$$$$",
"$$$$$$$$$$$$$$$$$$$$$$$$.O+++++++++++.XXXXXXXXXXXXXXXXXX.++++.O%%.ooo      .$$$$$$$$$$$$$$$$$$$$$$$$",
"$$$$$$$$$$$$$$$$$$$$$$$$.O+++++++++++.XXXXXXXXXXXXXXXXXX.++++.O%%.ooo      .$$$$$$$$$$$$$$$$$$$$$$$$",
"$$$$$$$$$$$$$$$$$$$$$$$$.O+++++++++++....................++++.O%%.ooo      .$$$$$$$$$$$$$$$$$$$$$$$$",
"$$$$$$$$$$$$$$$$$$$$$$$$.O+++++++++++OOOOOOOOOOOOOOOOOOOO++++.O%%.ooo      .$$$$$$$$$$$$$$$$$$$$$$$$",
"$$$$$$$$$$$$$$$$$$$$$$$$.O+++++++++++++++++++++++++++++++++++.O%%.ooo      .$$$$$$$$$$$$$$$$$$$$$$$$",
"$$$$$$$$$$$$$$$$$$$$$$$$.O+++++++++++++++++++++++++++++++++++.O%%.ooo      .$$$$$$$$$$$$$$$$$$$$$$$$",
"$$$$$$$$$$$$$$$$$$$$$$$$.O+++++++++++++++++++++++++++++++++++.O%%.ooo      .$$$$$$$$$$$$$$$$$$$$$$$$",
"$$$$$$$$$$$$$$$$$$$$$$$$.O+++++++++++++++++++++++++++++++++++.O%%.ooo      .$$$$$$$$$$$$$$$$$$$$$$$$",
"$$$$$$$$$$$$$$$$$$$$$$$$.O+++++++++++++++++++++++++++++++++++.O%%.ooo      .$$$$$$$$$$$$$$$$$$$$$$$$",
"$$$$$$$$$$$$$$$$$$$$$$$$.O+++++++++++++++++++++++++++++++++++.O%%.ooo      .$$$$$$$$$$$$$$$$$$$$$$$$",
"$$$$$$$$$$$$$$$$$$$$$$$$.O+++++++++++++++++++++++++++++++++++.O%%.ooo      .$$$$$$$$$$$$$$$$$$$$$$$$",
"$$$$$$$$$$$$$$$$$$$$$$$$.O+++++++++++++++++++++++++++++++++++.O%%.ooo      .$$$$$$$$$$$$$$$$$$$$$$$$",
"$$$$$$$$$$$$$$$$$$$$$$$$.O+++++++++++++++++++++++++++++++++++.O%%.ooo      .$$$$$$$$$$$$$$$$$$$$$$$$",
"$$$$$$$$$$$$$$$$$$$$$$$$.O+++++++++++++++++++++++++++++++++++.O%%.ooo      .$$$$$$$$$$$$$$$$$$$$$$$$",
"$$$$$$$$$$$$$$$$$$$$$$$$.O+++++++++++++++++++++++++++++++++++.OOO.ooo      .$$$$$$$$$$$$$$$$$$$$$$$$",
"$$$$$$$$$$$$$$$$$$$$$$$$.O+++++++++++++++++++++++++++++++++++.....ooo      .$$$$$$$$$$$$$$$$$$$$$$$$",
"$$$$$$$$$$$$$$$$$$$$$$$$.O++++++++++++++++++++++++++++++++++++++++ooo      .$$$$$$$$$$$$$$$$$$$$$$$$",
"$$$$$$$$$$$$$$$$$$$$$$$$.O++++++++++++++++++++++++++++++++++++++++ooo      .$$$$$$$$$$$$$$$$$$$$$$$$",
"$$$$$$$$$$$$$$$$$$$$$$$$.O++++++++++++++++++++++++++++++++++++++++ooo      .$$$$$$$$$$$$$$$$$$$$$$$$",
"$$$$$$$$$$$$$$$$$$$$$$$$.O++++++++++++++++++++++++++++++++++++++++ooo      .$$$$$$$$$$$$$$$$$$$$$$$$",
"$$$$$$$$$$$$$$$$$$$$$$$$.O++++++++++++++++++++++++++++++++++++++++ooo      .$$$$$$$$$$$$$$$$$$$$$$$$",
"$$$$$$$$$$$$$$$$$$$$$$$$.O++++++++++++++++++++++++++++++++++++++++ooo      .$$$$$$$$$$$$$$$$$$$$$$$$",
"$$$$$$$$$$$$$$$$$$$$$$$$.O++++++++++++++++++++++++++++++++++++++++ooo      .$$$$$$$$$$$$$$$$$$$$$$$$",
"$$$$$$$$$$$$$$$$$$$$$$$$.O++++++++++++++++++++++++++++++++++++++++ooo      .$$$$$$$$$$$$$$$$$$$$$$$$",
"$$$$$$$$$$$$$$$$$$$$$$$$.O++++++++++++++++++++++++++++++++++++++++ooo      .$$$$$$$$$$$$$$$$$$$$$$$$",
"$$$$$$$$$$$$$$$$$$$$$$$$.O++++++++++++++++++++++++++++++++++++++++ooo      .$$$$$$$$$$$$$$$$$$$$$$$$",
"$$$$$$$$$$$$$$$$$$$$$$$$.O++++++++++++++++++++++++++++++++++++++++ooo      .$$$$$$$$$$$$$$$$$$$$$$$$",
"$$$$$$$$$$$$$$$$$$$$$$$$.O++++++++++++++++++++++++++++++++++++++++ooo      .$$$$$$$$$$$$$$$$$$$$$$$$",
"$$$$$$$$$$$$$$$$$$$$$$$$.OOOOOOOOOOOOOOOOOOOOOOOOOOOOOOOOOOOOOOOOOooo      .$$$$$$$$$$$$$$$$$$$$$$$$",
"$$$$$$$$$$$$$$$$$$$$$$$$....................................................$$$$$$$$$$$$$$$$$$$$$$$$"
};
