/* XPM */
static char *result[] = {
/* columns rows colors chars-per-pixel */
"100 100 8 1 ",
"  c #202125",
". c #466925",
"X c #58595E",
"o c #76777B",
"O c #6FB928",
"+ c #B1EA7A",
"@ c #808B9E",
"# c #C1C1C1",
/* pixels */
"@@@@@@@@@@@@@@@@@@@@@@@@                                                    @@@@@@@@@@@@@@@@@@@@@@@@",
"@@@@@@@@@@@@@@@@@@@@@@@@ XXXXXXXXXXXXXXXXXXXXXXXXXXXXXXXXXXXXXXXXXXXXXXXXXX @@@@@@@@@@@@@@@@@@@@@@@@",
"@@@@@@@@@@@@@@@@@@@@@@@@ XooooooooooooooooooooooooooooooooooooooooooooooooX @@@@@@@@@@@@@@@@@@@@@@@@",
"@@@@@@@@@@@@@@@@@@@@@@@@ XooooooooooooooooooooooooooooooooooooooooooooooooX @@@@@@@@@@@@@@@@@@@@@@@@",
"@@@@@@@@@@@@@@@@@@@@@@@@ Xooooooooooooo                      oooooooooooooX @@@@@@@@@@@@@@@@@@@@@@@@",
"@@@@@@@@@@@@@@@@@@@@@@@@ Xooooooooooooo ++++++++++++++++++++ oooooooooooooX @@@@@@@@@@@@@@@@@@@@@@@@",
"@@@@@@@@@@@@@@@@@@@@@@@@ Xooooooooooooo ++++OOOOOOOOOOOO++++ oooooooooooooX @@@@@@@@@@@@@@@@@@@@@@@@",
"@@@@@@@@@@@@@@@@@@@@@@@@ Xooooooooooooo ++OOOOOOOOOOOOOOOO++ oooooooooooooX @@@@@@@@@@@@@@@@@@@@@@@@",
"@@@@@@@@@@@@@@@@@@@@@@@@ Xooooooooooooo +OOOOOOOOOOOOOOOOOO+ oooooooooooooX @@@@@@@@@@@@@@@@@@@@@@@@",
"@@@@@@@@@@@@@@@@@@@@@@@@ Xooooooooooooo +OOOOOOOOOOOOOOOOOO+ oooooooooooooX @@@@@@@@@@@@@@@@@@@@@@@@",
"@@@@@@@@@@@@@@@@@@@@@@@@ Xooooooooooooo +OOOOOOOOOOOOOOOOOO+ ooooo      ooX @@@@@@@@@@@@@@@@@@@@@@@@",
"@@@@@@@@@@@@@@@@@@@@@@@@ Xooooooooooooo +OOOOOOOOOOOOOOOOOO+ ooooo XXXX ooX @@@@@@@@@@@@@@@@@@@@@@@@",
"@@@@@@@@@@@@@@@@@@@@@@@@ Xooooooooooooo +OOOOOOOOOOOOOOOOOO+ ooooo X##X ooX @@@@@@@@@@@@@@@@@@@@@@@@",
"@@@@@@@@@@@@@@@@@@@@@@@@ Xooooooooooooo +OOOOOOOOOOOOOOOOOO+ ooooo X##X ooX @@@@@@@@@@@@@@@@@@@@@@@@",
"@@@@@@@@@@@@@@@@@@@@@@@@ Xooooooooooooo +OOOOOOOOOOOOOOOOOO+ ooooo X##X ooX @@@@@@@@@@@@@@@@@@@@@@@@",
"@@@@@@@@@@@@@@@@@@@@@@@@ Xooooooooooooo +OOOOOOOOOOOOOOOOOO+ ooooo X##X ooX @@@@@@@@@@@@@@@@@@@@@@@@",
"@@@@@@@@@@@@@@@@@@@@@@@@ Xooooooooooooo +OOOOOOOOOOOOOOOOOO+ ooooo X##X ooX @@@@@@@@@@@@@@@@@@@@@@@@",
"@@@@@@@@@@@@@@@@@@@@@@@@ Xooooooooooooo OOOOOOOOOOOOOOOOOOOO ooooo X##X ooX @@@@@@@@@@@@@@@@@@@@@@@@",
"@@@@@@@@@@@@@@@@@@@@@@@@ Xooooooooooooo OOOOOOOOOOOOOOOOOOOO ooooo X##X ooX @@@@@@@@@@@@@@@@@@@@@@@@",
"@@@@@@@@@@@@@@@@@@@@@@@@ Xooooooooooooo OOOOOOOOOOOOOOOOOOOO ooooo X##X ooX @@@@@@@@@@@@@@@@@@@@@@@@",
"@@@@@@@@@@@@@@@@@@@@@@@@ Xooooooooooooo OOOOOOOOOOOOOOOOOOOO ooooo X##X ooX @@@@@@@@@@@@@@@@@@@@@@@@",
"@@@@@@@@@@@@@@@@@@@@@@@@ Xooooooooooooo OOOOOOOOOOOOOOOOOOOO ooooo X##X ooX @@@@@@@@@@@@@@@@@@@@@@@@",
"@@@@@@@@@@@@@@@@@@@@@@@@ Xooooooooooooo OOOOOOOOOOOOOOOOOOOO ooooo X##X ooX @@@@@@@@@@@@@@@@@@@@@@@@",
"@@@@@@@@@@@@@@@@@@@@@@@@ Xooooooooooooo OOOOOOOOOOOOOOOOOOOO ooooo X##X ooX @@@@@@@@@@@@@@@@@@@@@@@@",
"@@@@@@@@@@@@@@@@@@@@@@@@ Xooooooooooooo OOOOOOOOOOOOOOOOOOOO ooooo X##X ooX @@@@@@@@@@@@@@@@@@@@@@@@",
"@@@@@@@@@@@@@@@@@@@@@@@@ Xooooooooooooo OOOOOOOOOOOOOOOOOOOO ooooo X##X ooX @@@@@@@@@@@@@@@@@@@@@@@@",
"@@@@@@@@@@@@@@@@@@@@@@@@ Xooooooooooooo OOOOOOOOOOOOOOOOOOOO ooooo X##X ooX @@@@@@@@@@@@@@@@@@@@@@@@",
"@@@@@@@@@@@@@@@@@@@@@@@@ Xooooooooooooo OOOOOOOOOOOOOOOOOOOO ooooo X##X ooX @@@@@@@@@@@@@@@@@@@@@@@@",
"@@@@@@@@@@@@@@@@@@@@@@@@ Xooooooooooooo OOOOOOOOOOOOOOOOOOOO ooooo X##X ooX @@@@@@@@@@@@@@@@@@@@@@@@",
"@@@@@@@@@@@@@@@@@@@@@@@@ Xooooooooooooo OOOOOOOOOOOOOOOOOOOO ooooo X##X ooX @@@@@@@@@@@@@@@@@@@@@@@@",
"@@@@@@@@@@@@@@@@@@@@@@@@ Xooooooooooooo OOOOOOOOOOOOOOOOOOOO ooooo X##X ooX @@@@@@@@@@@@@@@@@@@@@@@@",
"@@@@@@@@@@@@@@@@@@@@@@@@ Xooooooooooooo OOOOOO........OOOOOO ooooo X##X ooX @@@@@@@@@@@@@@@@@@@@@@@@",
"@@@@@@@@@@@@@@@@@@@@@@@@ Xooooooooooooo OOOOO..........OOOOO ooooo X##X ooX @@@@@@@@@@@@@@@@@@@@@@@@",
"@@@@@@@@@@@@@@@@@@@@@@@@ Xooooooooooooo OOOO...........OOOOO ooooo X##X ooX @@@@@@@@@@@@@@@@@@@@@@@@",
"@@@@@@@@@@@@@@@@@@@@@@@@ Xooooooooooooo OOOO............OOOO ooooo X##X ooX @@@@@@@@@@@@@@@@@@@@@@@@",
"@@@@@@@@@@@@@@@@@@@@@@@@ Xooooooooooooo OOO..............OOO ooooo X##X ooX @@@@@@@@@@@@@@@@@@@@@@@@",
"@@@@@@@@@@@@@@@@@@@@@@@@ Xooooooooooooo OOO..............OOO ooooo X##X ooX @@@@@@@@@@@@@@@@@@@@@@@@",
"@@@@@@@@@@@@@@@@@@@@@@@@ Xooooooooooooo OO................OO ooooo X##X ooX @@@@@@@@@@@@@@@@@@@@@@@@",
"@@@@@@@@@@@@@@@@@@@@@@@@ Xooooooooooooo OO................OO ooooo X##X ooX @@@@@@@@@@@@@@@@@@@@@@@@",
"@@@@@@@@@@@@@@@@@@@@@@@@ Xooooooooooooo O..................O ooooo X##X ooX @@@@@@@@@@@@@@@@@@@@@@@@",
"@@@@@@@@@@@@@@@@@@@@@@@@ Xooooooooooooo O..................O ooooo X##X ooX @@@@@@@@@@@@@@@@@@@@@@@@",
"@@@@@@@@@@@@@@@@@@@@@@@@ Xooooooooooooo .................... ooooo X##X ooX @@@@@@@@@@@@@@@@@@@@@@@@",
"@@@@@@@@@@@@@@@@@@@@@@@@ Xooooooooooooo .................... ooooo X##X ooX @@@@@@@@@@@@@@@@@@@@@@@@",
"@@@@@@@@@@@@@@@@@@@@@@@@ Xooooooooooooo .................... ooooo X##X ooX @@@@@@@@@@@@@@@@@@@@@@@@",
"@@@@@@@@@@@@@@@@@@@@@@@@ Xooooooooooooo .................... ooooo X##X ooX @@@@@@@@@@@@@@@@@@@@@@@@",
"@@@@@@@@@@@@@@@@@@@@@@@@ Xooooooooooooo .................... ooooo X##X ooX @@@@@@@@@@@@@@@@@@@@@@@@",
"@@@@@@@@@@@@@@@@@@@@@@@@ Xooooooooooooo .................... ooooo X##X ooX @@@@@@@@@@@@@@@@@@@@@@@@",
"@@@@@@@@@@@@@@@@@@@@@@@@ Xooooooooooooo .................... ooooo X##X ooX @@@@@@@@@@@@@@@@@@@@@@@@",
"@@@@@@@@@@@@@@@@@@@@@@@@ Xooooooooooooo .................... ooooo X##X ooX @@@@@@@@@@@@@@@@@@@@@@@@",
"@@@@@@@@@@@@@@@@@@@@@@@@ Xooooooooooooo .................... ooooo X##X ooX @@@@@@@@@@@@@@@@@@@@@@@@",
"@@@@@@@@@@@@@@@@@@@@@@@@ Xooooooooooooo .................... ooooo X##X ooX @@@@@@@@@@@@@@@@@@@@@@@@",
"@@@@@@@@@@@@@@@@@@@@@@@@ Xooooooooooooo .................... ooooo X##X ooX @@@@@@@@@@@@@@@@@@@@@@@@",
"@@@@@@@@@@@@@@@@@@@@@@@@ Xooooooooooooo .................... ooooo X##X ooX @@@@@@@@@@@@@@@@@@@@@@@@",
"@@@@@@@@@@@@@@@@@@@@@@@@ Xooooooooooooo .................... ooooo X##X ooX @@@@@@@@@@@@@@@@@@@@@@@@",
"@@@@@@@@@@@@@@@@@@@@@@@@ Xooooooooooooo .................... ooooo X##X ooX @@@@@@@@@@@@@@@@@@@@@@@@",
"@@@@@@@@@@@@@@@@@@@@@@@@ Xooooooooooooo .................... ooooo X##X ooX @@@@@@@@@@@@@@@@@@@@@@@@",
"@@@@@@@@@@@@@@@@@@@@@@@@ Xooooooooooooo .................... ooooo X##X ooX @@@@@@@@@@@@@@@@@@@@@@@@",
"@@@@@@@@@@@@@@@@@@@@@@@@ Xooooooooooooo .................... ooooo X##X ooX @@@@@@@@@@@@@@@@@@@@@@@@",
"@@@@@@@@@@@@@@@@@@@@@@@@ Xooooooooooooo .................... ooooo X##X ooX @@@@@@@@@@@@@@@@@@@@@@@@",
"@@@@@@@@@@@@@@@@@@@@@@@@ Xooooooooooooo .................... ooooo X##X ooX @@@@@@@@@@@@@@@@@@@@@@@@",
"@@@@@@@@@@@@@@@@@@@@@@@@ Xooooooooooooo .................... ooooo X##X ooX @@@@@@@@@@@@@@@@@@@@@@@@",
"@@@@@@@@@@@@@@@@@@@@@@@@ Xooooooooooooo .................... ooooo X##X ooX @@@@@@@@@@@@@@@@@@@@@@@@",
"@@@@@@@@@@@@@@@@@@@@@@@@ Xooooooooooooo .................... ooooo X##X ooX @@@@@@@@@@@@@@@@@@@@@@@@",
"@@@@@@@@@@@@@@@@@@@@@@@@ Xooooooooooooo .................... ooooo X##X ooX @@@@@@@@@@@@@@@@@@@@@@@@",
"@@@@@@@@@@@@@@@@@@@@@@@@ Xooooooooooooo .................... ooooo X##X ooX @@@@@@@@@@@@@@@@@@@@@@@@",
"@@@@@@@@@@@@@@@@@@@@@@@@ Xooooooooooooo .................... ooooo X##X ooX @@@@@@@@@@@@@@@@@@@@@@@@",
"@@@@@@@@@@@@@@@@@@@@@@@@ Xooooooooooooo .................... ooooo X##X ooX @@@@@@@@@@@@@@@@@@@@@@@@",
"@@@@@@@@@@@@@@@@@@@@@@@@ Xooooooooooooo .................... ooooo X##X ooX @@@@@@@@@@@@@@@@@@@@@@@@",
"@@@@@@@@@@@@@@@@@@@@@@@@ Xooooooooooooo .................... ooooo X##X ooX @@@@@@@@@@@@@@@@@@@@@@@@",
"@@@@@@@@@@@@@@@@@@@@@@@@ Xooooooooooooo .................... ooooo X##X ooX @@@@@@@@@@@@@@@@@@@@@@@@",
"@@@@@@@@@@@@@@@@@@@@@@@@ Xooooooooooooo .................... ooooo X##X ooX @@@@@@@@@@@@@@@@@@@@@@@@",
"@@@@@@@@@@@@@@@@@@@@@@@@ Xooooooooooooo .................... ooooo X##X ooX @@@@@@@@@@@@@@@@@@@@@@@@",
"@@@@@@@@@@@@@@@@@@@@@@@@ Xooooooooooooo                      ooooo X##X ooX @@@@@@@@@@@@@@@@@@@@@@@@",
"@@@@@@@@@@@@@@@@@@@@@@@@ XoooooooooooooXXXXXXXXXXXXXXXXXXXXXXooooo X##X ooX @@@@@@@@@@@@@@@@@@@@@@@@",
"@@@@@@@@@@@@@@@@@@@@@@@@ Xoooooooooooooooooooooooooooooooooooooooo X##X ooX @@@@@@@@@@@@@@@@@@@@@@@@",
"@@@@@@@@@@@@@@@@@@@@@@@@ Xoooooooooooooooooooooooooooooooooooooooo X##X ooX @@@@@@@@@@@@@@@@@@@@@@@@",
"@@@@@@@@@@@@@@@@@@@@@@@@ Xoooooooooooooooooooooooooooooooooooooooo X##X ooX @@@@@@@@@@@@@@@@@@@@@@@@",
"@@@@@@@@@@@@@@@@@@@@@@@@ Xoooooooooooooooooooooooooooooooooooooooo X##X ooX @@@@@@@@@@@@@@@@@@@@@@@@",
"@@@@@@@@@@@@@@@@@@@@@@@@ Xoooooooooooooooooooooooooooooooooooooooo X##X ooX @@@@@@@@@@@@@@@@@@@@@@@@",
"@@@@@@@@@@@@@@@@@@@@@@@@ Xoooooooooooooooooooooooooooooooooooooooo X##X ooX @@@@@@@@@@@@@@@@@@@@@@@@",
"@@@@@@@@@@@@@@@@@@@@@@@@ Xoooooooooooooooooooooooooooooooooooooooo X##X ooX @@@@@@@@@@@@@@@@@@@@@@@@",
"@@@@@@@@@@@@@@@@@@@@@@@@ Xoooooooooooooooooooooooooooooooooooooooo X##X ooX @@@@@@@@@@@@@@@@@@@@@@@@",
"@@@@@@@@@@@@@@@@@@@@@@@@ Xoooooooooooooooooooooooooooooooooooooooo X##X ooX @@@@@@@@@@@@@@@@@@@@@@@@",
"@@@@@@@@@@@@@@@@@@@@@@@@ Xoooooooooooooooooooooooooooooooooooooooo X##X ooX @@@@@@@@@@@@@@@@@@@@@@@@",
"@@@@@@@@@@@@@@@@@@@@@@@@ Xoooooooooooooooooooooooooooooooooooooooo XXXX ooX @@@@@@@@@@@@@@@@@@@@@@@@",
"@@@@@@@@@@@@@@@@@@@@@@@@ Xoooooooooooooooooooooooooooooooooooooooo      ooX @@@@@@@@@@@@@@@@@@@@@@@@",
"@@@@@@@@@@@@@@@@@@@@@@@@ XooooooooooooooooooooooooooooooooooooooooooooooooX @@@@@@@@@@@@@@@@@@@@@@@@",
"@@@@@@@@@@@@@@@@@@@@@@@@ XooooooooooooooooooooooooooooooooooooooooooooooooX @@@@@@@@@@@@@@@@@@@@@@@@",
"@@@@@@@@@@@@@@@@@@@@@@@@ XooooooooooooooooooooooooooooooooooooooooooooooooX @@@@@@@@@@@@@@@@@@@@@@@@",
"@@@@@@@@@@@@@@@@@@@@@@@@ XooooooooooooooooooooooooooooooooooooooooooooooooX @@@@@@@@@@@@@@@@@@@@@@@@",
"@@@@@@@@@@@@@@@@@@@@@@@@ XooooooooooooooooooooooooooooooooooooooooooooooooX @@@@@@@@@@@@@@@@@@@@@@@@",
"@@@@@@@@@@@@@@@@@@@@@@@@ XooooooooooooooooooooooooooooooooooooooooooooooooX @@@@@@@@@@@@@@@@@@@@@@@@",
"@@@@@@@@@@@@@@@@@@@@@@@@ XooooooooooooooooooooooooooooooooooooooooooooooooX @@@@@@@@@@@@@@@@@@@@@@@@",
"@@@@@@@@@@@@@@@@@@@@@@@@ XooooooooooooooooooooooooooooooooooooooooooooooooX @@@@@@@@@@@@@@@@@@@@@@@@",
"@@@@@@@@@@@@@@@@@@@@@@@@ XooooooooooooooooooooooooooooooooooooooooooooooooX @@@@@@@@@@@@@@@@@@@@@@@@",
"@@@@@@@@@@@@@@@@@@@@@@@@ XooooooooooooooooooooooooooooooooooooooooooooooooX @@@@@@@@@@@@@@@@@@@@@@@@",
"@@@@@@@@@@@@@@@@@@@@@@@@ XooooooooooooooooooooooooooooooooooooooooooooooooX @@@@@@@@@@@@@@@@@@@@@@@@",
"@@@@@@@@@@@@@@@@@@@@@@@@ XooooooooooooooooooooooooooooooooooooooooooooooooX @@@@@@@@@@@@@@@@@@@@@@@@",
"@@@@@@@@@@@@@@@@@@@@@@@@ XXXXXXXXXXXXXXXXXXXXXXXXXXXXXXXXXXXXXXXXXXXXXXXXXX @@@@@@@@@@@@@@@@@@@@@@@@",
"@@@@@@@@@@@@@@@@@@@@@@@@                                                    @@@@@@@@@@@@@@@@@@@@@@@@"
};
