/* XPM */
static char *result[] = {
/* columns rows colors chars-per-pixel */
"100 100 4 1 ",
"  c black",
". c #202125",
"X c #46484E",
"o c #808B9E",
/* pixels */
"oooooooooooooooooooooooo....................................................oooooooooooooooooooooooo",
"oooooooooooooooooooooooo.XXX                                               .oooooooooooooooooooooooo",
"oooooooooooooooooooooooo.XXX                                               .oooooooooooooooooooooooo",
"oooooooooooooooooooooooo.XXX                                               .oooooooooooooooooooooooo",
"oooooooooooooooooooooooo.XXX                                               .oooooooooooooooooooooooo",
"oooooooooooooooooooooooo.XXX                                               .oooooooooooooooooooooooo",
"oooooooooooooooooooooooo.XXX                                               .oooooooooooooooooooooooo",
"oooooooooooooooooooooooo.XXX                                               .oooooooooooooooooooooooo",
"oooooooooooooooooooooooo.XXX                                               .oooooooooooooooooooooooo",
"oooooooooooooooooooooooo.XXX                                               .oooooooooooooooooooooooo",
"oooooooooooooooooooooooo.XXX                                               .oooooooooooooooooooooooo",
"oooooooooooooooooooooooo.XXX                                               .oooooooooooooooooooooooo",
"oooooooooooooooooooooooo.XXX                                               .oooooooooooooooooooooooo",
"oooooooooooooooooooooooo.XXX                                               .oooooooooooooooooooooooo",
"oooooooooooooooooooooooo.XXX                                               .oooooooooooooooooooooooo",
"oooooooooooooooooooooooo.XXX                                               .oooooooooooooooooooooooo",
"oooooooooooooooooooooooo.XXX                                               .oooooooooooooooooooooooo",
"oooooooooooooooooooooooo.XXX                                               .oooooooooooooooooooooooo",
"oooooooooooooooooooooooo.XXX                                               .oooooooooooooooooooooooo",
"oooooooooooooooooooooooo.XXX                                               .oooooooooooooooooooooooo",
"oooooooooooooooooooooooo.XXX                                               .oooooooooooooooooooooooo",
"oooooooooooooooooooooooo.XXX                                               .oooooooooooooooooooooooo",
"oooooooooooooooooooooooo.XXX                                               .oooooooooooooooooooooooo",
"oooooooooooooooooooooooo.XXX                                               .oooooooooooooooooooooooo",
"oooooooooooooooooooooooo.XXX                                               .oooooooooooooooooooooooo",
"oooooooooooooooooooooooo.XXX                                               .oooooooooooooooooooooooo",
"oooooooooooooooooooooooo.XXX                                               .oooooooooooooooooooooooo",
"oooooooooooooooooooooooo.XXX                                               .oooooooooooooooooooooooo",
"oooooooooooooooooooooooo.XXX                                               .oooooooooooooooooooooooo",
"oooooooooooooooooooooooo.XXX                                               .oooooooooooooooooooooooo",
"oooooooooooooooooooooooo.XXX                                               .oooooooooooooooooooooooo",
"oooooooooooooooooooooooo.XXX                                               .oooooooooooooooooooooooo",
"oooooooooooooooooooooooo.XXX                                               .oooooooooooooooooooooooo",
"oooooooooooooooooooooooo.XXX                                               .oooooooooooooooooooooooo",
"oooooooooooooooooooooooo.XXX                                               .oooooooooooooooooooooooo",
"oooooooooooooooooooooooo.XXX                                               .oooooooooooooooooooooooo",
"oooooooooooooooooooooooo.XXX                                               .oooooooooooooooooooooooo",
"oooooooooooooooooooooooo.XXX                                               .oooooooooooooooooooooooo",
"oooooooooooooooooooooooo.XXX                                               .oooooooooooooooooooooooo",
"oooooooooooooooooooooooo.XXX                                               .oooooooooooooooooooooooo",
"oooooooooooooooooooooooo.XXX                                               .oooooooooooooooooooooooo",
"oooooooooooooooooooooooo.XXX                                               .oooooooooooooooooooooooo",
"oooooooooooooooooooooooo.XXX                                               .oooooooooooooooooooooooo",
"oooooooooooooooooooooooo.XXX                                               .oooooooooooooooooooooooo",
"oooooooooooooooooooooooo.XXX                                               .oooooooooooooooooooooooo",
"oooooooooooooooooooooooo.XXX                                               .oooooooooooooooooooooooo",
"oooooooooooooooooooooooo.XXX                                               .oooooooooooooooooooooooo",
"oooooooooooooooooooooooo.XXX                                               .oooooooooooooooooooooooo",
"oooooooooooooooooooooooo.XXX                                               .oooooooooooooooooooooooo",
"oooooooooooooooooooooooo.XXX                                               .oooooooooooooooooooooooo",
"oooooooooooooooooooooooo.XXX                                               .oooooooooooooooooooooooo",
"oooooooooooooooooooooooo.XXX                                               .oooooooooooooooooooooooo",
"oooooooooooooooooooooooo.XXX                                               .oooooooooooooooooooooooo",
"oooooooooooooooooooooooo.XXX                                               .oooooooooooooooooooooooo",
"oooooooooooooooooooooooo.XXX                                               .oooooooooooooooooooooooo",
"oooooooooooooooooooooooo.XXX                                               .oooooooooooooooooooooooo",
"oooooooooooooooooooooooo.XXX                                               .oooooooooooooooooooooooo",
"oooooooooooooooooooooooo.XXX                                               .oooooooooooooooooooooooo",
"oooooooooooooooooooooooo.XXX                                               .oooooooooooooooooooooooo",
"oooooooooooooooooooooooo.XXX                                               .oooooooooooooooooooooooo",
"oooooooooooooooooooooooo.XXX                                               .oooooooooooooooooooooooo",
"oooooooooooooooooooooooo.XXX                                               .oooooooooooooooooooooooo",
"oooooooooooooooooooooooo.XXX                                               .oooooooooooooooooooooooo",
"oooooooooooooooooooooooo.XXX                                               .oooooooooooooooooooooooo",
"oooooooooooooooooooooooo.XXX                                               .oooooooooooooooooooooooo",
"oooooooooooooooooooooooo.XXX                                               .oooooooooooooooooooooooo",
"oooooooooooooooooooooooo.XXX                                               .oooooooooooooooooooooooo",
"oooooooooooooooooooooooo.XXX                                               .oooooooooooooooooooooooo",
"oooooooooooooooooooooooo.XXX                                               .oooooooooooooooooooooooo",
"oooooooooooooooooooooooo.XXX                                               .oooooooooooooooooooooooo",
"oooooooooooooooooooooooo.XXX                                               .oooooooooooooooooooooooo",
"oooooooooooooooooooooooo.XXX                                               .oooooooooooooooooooooooo",
"oooooooooooooooooooooooo.XXX                                               .oooooooooooooooooooooooo",
"oooooooooooooooooooooooo.XXX                                               .oooooooooooooooooooooooo",
"oooooooooooooooooooooooo.XXX                                               .oooooooooooooooooooooooo",
"oooooooooooooooooooooooo.XXX                                               .oooooooooooooooooooooooo",
"oooooooooooooooooooooooo.XXX                                               .oooooooooooooooooooooooo",
"oooooooooooooooooooooooo.XXX                                               .oooooooooooooooooooooooo",
"oooooooooooooooooooooooo.XXX                                               .oooooooooooooooooooooooo",
"oooooooooooooooooooooooo.XXX                                               .oooooooooooooooooooooooo",
"oooooooooooooooooooooooo.XXX                                               .oooooooooooooooooooooooo",
"oooooooooooooooooooooooo.XXX                                               .oooooooooooooooooooooooo",
"oooooooooooooooooooooooo.XXX                                               .oooooooooooooooooooooooo",
"oooooooooooooooooooooooo.XXX                                               .oooooooooooooooooooooooo",
"oooooooooooooooooooooooo.XXX                                               .oooooooooooooooooooooooo",
"oooooooooooooooooooooooo.XXX                                               .oooooooooooooooooooooooo",
"oooooooooooooooooooooooo.XXX                                               .oooooooooooooooooooooooo",
"oooooooooooooooooooooooo.XXX                                               .oooooooooooooooooooooooo",
"oooooooooooooooooooooooo.XXX                                               .oooooooooooooooooooooooo",
"oooooooooooooooooooooooo.XXX                                               .oooooooooooooooooooooooo",
"oooooooooooooooooooooooo.XXX                                               .oooooooooooooooooooooooo",
"oooooooooooooooooooooooo.XXX                                               .oooooooooooooooooooooooo",
"oooooooooooooooooooooooo.XXX                                               .oooooooooooooooooooooooo",
"oooooooooooooooooooooooo.XXX                                               .oooooooooooooooooooooooo",
"oooooooooooooooooooooooo.XXX                                               .oooooooooooooooooooooooo",
"oooooooooooooooooooooooo.XXX                                               .oooooooooooooooooooooooo",
"oooooooooooooooooooooooo.XXX                                               .oooooooooooooooooooooooo",
"oooooooooooooooooooooooo.XXX                                               .oooooooooooooooooooooooo",
"oooooooooooooooooooooooo.XXX                                               .oooooooooooooooooooooooo",
"oooooooooooooooooooooooo....................................................oooooooooooooooooooooooo"
};
